<svg xmlns="http://www.w3.org/2000/svg" xml:space="preserve" shape-rendering="crispEdges" viewBox="0 0 46.1 46.1"><path d="M32 24h-.2a1.5 1.5 0 0 1-1.2-1.8l2-9a1.5 1.5 0 0 1 2.9.5l-2 9.1a2 2 0 0 1-1.4 1.2" style="fill:#f0f"/><path d="M35 15a7.5 7.5 0 1 1 .1-15 7.5 7.5 0 0 1 0 15" style="fill:#f0f"/><path d="M35 12a4.5 4.5 0 1 1 .1-9 4.5 4.5 0 0 1 0 9" style="fill:#ff0"/><path d="M14 24a2 2 0 0 1-1.4-1.2l-2-9a1.5 1.5 0 0 1 3-.7l2 9.1a1.5 1.5 0 0 1-1.2 1.8z" style="fill:#f0f"/><path d="M36.6 7.5A1.5 1.5 0 0 1 35 9a1.5 1.5 0 0 1-1.5-1.5 1.5 1.5 0 0 1 3 0" style="fill:#00f"/><path d="M1.8 39h-.5a1.5 1.5 0 1 1 .5-3l.6-.3q1-1 .8-2.2a5 5 0 0 1 1.4-3.9Q6 28.1 8 28.4a1.5 1.5 0 1 1-.4 3q-.7 0-1 .3a2 2 0 0 0-.5 1.4c.2 1.6-.4 3.5-1.6 4.7Q3.4 39 1.8 39m15.5 7a1.5 1.5 0 0 1-1-2.6q.5-.4.6-1.6c0-1.2-.3-1.3-.5-1.5q-1.7-1.3-1.8-3.9 0-2.4 1.8-3.8a1.5 1.5 0 1 1 1.8 2.4q-.6.4-.6 1.4c0 1 .2 1.2.6 1.5q1.6 1.3 1.7 4-.1 2.5-1.7 3.9zm-8.4-2.6a1.5 1.5 0 0 1-.4-3q.5 0 .7-.9.5-1.3.1-2a5 5 0 0 1-.2-4.3 4 4 0 0 1 2.8-2.6 1.5 1.5 0 0 1 .8 2.9q-.5 0-.8.9t0 1.5c.7 1.3.8 3.2.1 4.8a4 4 0 0 1-2.8 2.6zM28.8 46l-.9-.2q-1.6-1.3-1.7-4c-.1-2.7.6-3.1 1.7-4q.5-.3.5-1.4 0-1.3-.5-1.4a1.5 1.5 0 1 1 1.8-2.4q1.7 1.4 1.8 3.8c0 2.4-.7 3-1.8 3.9q-.4.3-.5 1.5.1 1.2.5 1.6a1.5 1.5 0 0 1-.9 2.7m8.5-2.6H37a4 4 0 0 1-2.7-2.7c-.7-1.6-.7-3.5 0-4.8q.4-.7.1-1.5-.3-.7-.8-.9a1.5 1.5 0 1 1 .7-3q2 .7 2.9 2.7.9 2.3-.2 4.3-.4.7 0 2 .3.8.8 1a1.5 1.5 0 0 1-.4 2.9m7-4.5q-1.6 0-2.8-1.2A6 6 0 0 1 40 33a2 2 0 0 0-.5-1.4q-.4-.3-1-.3a1.5 1.5 0 1 1-.5-3q2-.3 3.6 1.2 1.5 1.6 1.3 4 0 1 .8 2 .3.4.7.4a1.5 1.5 0 1 1 .4 3z" style="fill:#f0f"/><path d="M23 36c-12 0-21.6-9-22-9.4a1.5 1.5 0 0 1 0-2.1C1.4 24 11 15 23 15s21.7 9 22.1 9.5a2 2 0 0 1 .5 1 2 2 0 0 1-.5 1.1c-.4.4-10 9.5-22 9.5" style="fill:#f0f"/><path d="M23 15v21c12.2 0 21.7-9 22.1-9.4a2 2 0 0 0 .5-1 2 2 0 0 0-.5-1.1c-.4-.4-10-9.5-22-9.5M11 15a7.5 7.5 0 1 1 0-15 7.5 7.5 0 0 1 0 15" style="fill:#f0f"/><path d="M11 12a4.5 4.5 0 1 1 0-9 4.5 4.5 0 0 1 0 9" style="fill:#ff0"/><path d="M12.6 7.5A1.5 1.5 0 0 1 11 9a1.5 1.5 0 0 1-1.5-1.5 1.5 1.5 0 0 1 3 0" style="fill:#00f"/></svg>