<svg xmlns="http://www.w3.org/2000/svg" xml:space="preserve" shape-rendering="crispEdges" viewBox="0 0 69.1 69.1"><path d="M16 34C7.3 34 .2 26.9.2 18.2a4 4 0 1 1 7.9 0 8 8 0 0 0 8 7.9 4 4 0 0 1 0 7.9m37 0a4 4 0 0 1 0-7.9 8 8 0 0 0 8-8 4 4 0 1 1 7.8 0C69 27 62 34 53.1 34" style="fill:#0f0"/><path d="M64.9 45v-1.4a9 9 0 0 0-7.2-8.9v-.1a9 9 0 0 0-4.4-7.8l.1-1.3a9 9 0 0 0-6-8.6l.1-.5a9 9 0 0 0-9-9.1h-7.8a9 9 0 0 0-9 9.6 9 9 0 0 0-6 9.9 9 9 0 0 0-4.3 7.8v.1a9 9 0 0 0-7.3 9l.1 1.3a9 9 0 0 0 4.9 16.8h51A9 9 0 0 0 64.8 45" style="fill:#0f0"/><path d="M64.6 51.5a2.5 2.5 0 0 1-2.4 2.5 2.5 2.5 0 0 1-2.5-2.5 2.5 2.5 0 0 1 5 0M44.2 26a9.7 9.7 0 0 1-9.7 9.7 9.7 9.7 0 0 1-9.8-9.7 9.7 9.7 0 0 1 19.5 0" style="fill:#fff"/><path d="M39 26a4.5 4.5 0 0 1-4.4 4.4A4.5 4.5 0 0 1 30 26a4.5 4.5 0 0 1 9 0" style="fill:red"/><path d="M48.2 40.3H44v3.6a3 3 0 0 1-5.8 0v-3.6h-8.6a3 3 0 1 1-5.8 0H21c-1.6 0-1.7 1-1.7 1.4a15.4 15.4 0 0 0 30.7 0c0-.5-.1-1.4-1.7-1.4" style="opacity:.3"/><path d="M58.3 41.5a1.2 1.2 0 0 0-1.2-1.2 1.2 1.2 0 1 0 1.2 1.2m-48 11.2a1.2 1.2 0 0 0-1.2-1.2 1.2 1.2 0 1 0 1.2 1.2m9.5-17.9a1.2 1.2 0 0 0-1.3-1.2 1.2 1.2 0 1 0 1.3 1.2m21.7-22a1.2 1.2 0 0 0-1.2-1.2 1.2 1.2 0 1 0 1.2 1.3m7.9 22.7a1.2 1.2 0 0 0-1.2-1.2 1.2 1.2 0 1 0 1.2 1.2M48.7 57a1.2 1.2 0 0 0-1.2-1.2 1.2 1.2 0 1 0 1.2 1.2m6-6.6a1.2 1.2 0 0 0-1.3-1.2 1.2 1.2 0 1 0 1.3 1.2M53.4 32a1.2 1.2 0 0 0-1.2-1.3 1.2 1.2 0 1 0 1.2 1.3" style="opacity:.2"/></svg>