<svg shape-rendering="crispEdges" height="108" width="108" xmlns="http://www.w3.org/2000/svg" viewBox="0 0 69.12 69.12" xml:space="preserve"><path style="fill:#00ff00" d="M16.01 33.99C7.288 33.99.192 26.894.192 18.172a3.944 3.944 0 1 1 7.888 0c0 4.372 3.557 7.929 7.93 7.929a3.944 3.944 0 0 1 0 7.888m37.098 0a3.944 3.944 0 0 1 0-7.888c4.372 0 7.929-3.557 7.929-7.929a3.944 3.944 0 1 1 7.889 0c0 8.722-7.096 15.818-15.818 15.818"/><path style="fill:#00ff00" d="M64.876 45.046q.106-.684.107-1.399c0-4.388-3.11-8.049-7.246-8.9l.005-.187a9.08 9.08 0 0 0-4.398-7.785q.093-.638.094-1.302a9.09 9.09 0 0 0-5.951-8.531q.017-.276.018-.556A9.086 9.086 0 0 0 38.419 7.3H30.7a9.086 9.086 0 0 0-9.068 9.642 9.09 9.09 0 0 0-5.857 9.833 9.08 9.08 0 0 0-4.398 7.785l.005.187c-4.136.851-7.246 4.512-7.246 8.9q.001.715.107 1.399a9.086 9.086 0 0 0 4.843 16.772h50.948a9.086 9.086 0 0 0 4.842-16.773"/><path style="fill:#fff" d="M64.61 51.511a2.46 2.46 0 0 1-2.46 2.46 2.46 2.46 0 0 1-2.46-2.46 2.46 2.46 0 0 1 4.92 0M44.283 25.914a9.724 9.724 0 0 1-9.724 9.723 9.724 9.724 0 0 1-9.723-9.723 9.724 9.724 0 0 1 19.447 0"/><path style="fill:#ffff00" d="M39.091 25.914a4.53 4.53 0 0 1-4.532 4.531 4.53 4.53 0 0 1-4.531-4.531 4.531 4.531 0 0 1 9.063 0"/><path style="opacity:.3" d="M48.168 40.299h-4.174v3.574a2.911 2.911 0 0 1-5.822 0v-3.574h-8.54a2.91 2.91 0 1 1-5.822 0h-2.861c-1.602 0-1.744.941-1.701 1.403.709 7.833 7.293 13.971 15.311 13.971S49.16 49.535 49.87 41.702c.042-.462-.1-1.403-1.702-1.403"/><path style="opacity:.2" d="M58.281 41.521a1.22 1.22 0 0 0-1.223-1.222 1.222 1.222 0 1 0 1.223 1.223m-47.986 11.21a1.22 1.22 0 0 0-1.223-1.222 1.222 1.222 0 1 0 1.223 1.223m9.457-17.903a1.22 1.22 0 0 0-1.223-1.222 1.222 1.222 0 1 0 1.223 1.223m21.784-21.965a1.22 1.22 0 0 0-1.223-1.222 1.222 1.222 0 1 0 1.223 1.223m7.858 22.77a1.223 1.223 0 0 0-1.223-1.223 1.222 1.222 0 1 0 1.223 1.223m-.666 21.26a1.223 1.223 0 0 0-1.223-1.223 1.222 1.222 0 1 0 1.223 1.223m5.932-6.608a1.22 1.22 0 0 0-1.223-1.222 1.222 1.222 0 1 0 1.223 1.223m-1.222-18.223a1.223 1.223 0 0 0-1.223-1.223 1.222 1.222 0 1 0 1.223 1.223"/></svg>