<svg shape-rendering="crispEdges" height="72" width="72" xmlns="http://www.w3.org/2000/svg" viewBox="0 0 46.08 46.08" xml:space="preserve"><path style="fill:#ff00ff" d="M32.086 24.042q-0.152 0 -0.308 -0.032a1.506 1.506 0 0 1 -1.166 -1.778l1.898 -9.118a1.506 1.506 0 0 1 2.944 0.612l-1.898 9.118a1.5 1.5 0 0 1 -1.47 1.196"/><path style="fill:#ff00ff" d="M35.09 15.026c-4.142 0 -7.514 -3.37 -7.514 -7.514S30.946 0 35.09 0s7.514 3.37 7.514 7.514 -3.37 7.514 -7.514 7.514"/><path style="fill:#ffff00" d="M35.09 12.02c-2.486 0 -4.508 -2.022 -4.508 -4.508s2.022 -4.508 4.508 -4.508 4.508 2.022 4.508 4.508 -2.022 4.508 -4.508 4.508"/><path style="fill:#ff00ff" d="M14.05 24.042a1.5 1.5 0 0 1 -1.47 -1.196l-1.896 -9.118a1.504 1.504 0 0 1 2.944 -0.612l1.896 9.118a1.5 1.5 0 0 1 -1.166 1.778 2 2 0 0 1 -0.308 0.032"/><path style="fill:#0000ff" d="M36.592 7.514a1.5 1.5 0 0 1 -1.502 1.502 1.5 1.5 0 0 1 -1.504 -1.502 1.502 1.502 0 0 1 3.006 0"/><path style="fill:#ff00ff" d="M1.818 39.018a4 4 0 0 1 -0.48 -0.034 1.5 1.5 0 1 1 0.424 -2.976c0.262 0.04 0.558 -0.23 0.674 -0.348 0.548 -0.548 0.906 -1.49 0.812 -2.142a4.64 4.64 0 0 1 1.33 -3.902c0.968 -0.97 2.27 -1.422 3.556 -1.236a1.502 1.502 0 1 1 -0.424 2.976c-0.478 -0.068 -0.836 0.212 -1.008 0.384a1.64 1.64 0 0 0 -0.48 1.352c0.226 1.586 -0.442 3.472 -1.664 4.692 -0.804 0.804 -1.764 1.232 -2.744 1.232M17.26 46.08a1.504 1.504 0 0 1 -0.904 -2.704c0.254 -0.19 0.526 -0.756 0.526 -1.552s-0.272 -1.364 -0.526 -1.554c-1.08 -0.81 -1.726 -2.244 -1.726 -3.83 0 -1.588 0.646 -3.02 1.726 -3.832a1.502 1.502 0 1 1 1.804 2.404c-0.314 0.236 -0.526 0.81 -0.526 1.428s0.212 1.192 0.526 1.428c1.08 0.81 1.726 2.29 1.726 3.958 0 1.666 -0.646 3.146 -1.726 3.956a1.5 1.5 0 0 1 -0.9 0.298m-8.488 -2.596a1.504 1.504 0 0 1 -0.372 -2.958c0.258 -0.066 0.552 -0.416 0.748 -0.89 0.34 -0.822 0.282 -1.672 0.056 -2.056 -0.728 -1.23 -0.806 -2.828 -0.208 -4.274 0.554 -1.338 1.594 -2.29 2.852 -2.612a1.504 1.504 0 0 1 0.746 2.91c-0.328 0.084 -0.636 0.402 -0.822 0.852 -0.228 0.55 -0.222 1.19 0.018 1.592 0.75 1.266 0.802 3.126 0.134 4.738 -0.572 1.378 -1.584 2.344 -2.78 2.65a1.6 1.6 0 0 1 -0.374 0.048"/><path style="fill:#ff00ff" d="M28.82 46.08a1.5 1.5 0 0 1 -0.9 -0.3c-1.08 -0.81 -1.726 -2.29 -1.726 -3.956s0.646 -3.146 1.726 -3.958c0.314 -0.236 0.526 -0.81 0.526 -1.428s-0.212 -1.192 -0.526 -1.428a1.502 1.502 0 1 1 1.804 -2.404c1.08 0.81 1.726 2.244 1.726 3.832s-0.646 3.02 -1.726 3.83c-0.254 0.19 -0.526 0.756 -0.526 1.554 0 0.796 0.272 1.362 0.526 1.552a1.502 1.502 0 0 1 -0.904 2.704m8.488 -2.594a1.6 1.6 0 0 1 -0.374 -0.048c-1.196 -0.306 -2.208 -1.272 -2.78 -2.65 -0.668 -1.612 -0.616 -3.472 0.134 -4.738 0.238 -0.402 0.246 -1.042 0.016 -1.594 -0.186 -0.448 -0.492 -0.766 -0.82 -0.85a1.5 1.5 0 1 1 0.746 -2.91c1.258 0.322 2.298 1.274 2.852 2.61 0.6 1.446 0.522 3.044 -0.206 4.276 -0.226 0.384 -0.284 1.234 0.056 2.056 0.196 0.474 0.49 0.824 0.748 0.89a1.5 1.5 0 0 1 -0.372 2.958m6.954 -4.466c-0.98 0 -1.94 -0.428 -2.744 -1.232 -1.22 -1.22 -1.89 -3.106 -1.664 -4.692a1.64 1.64 0 0 0 -0.48 -1.354c-0.172 -0.174 -0.53 -0.454 -1.008 -0.384a1.502 1.502 0 1 1 -0.424 -2.976c1.286 -0.184 2.588 0.266 3.556 1.236 1.034 1.034 1.532 2.494 1.33 3.904 -0.094 0.652 0.264 1.592 0.812 2.142 0.118 0.116 0.408 0.388 0.674 0.348a1.502 1.502 0 1 1 0.424 2.976 4 4 0 0 1 -0.48 0.034"/><path style="fill:#ff00ff" d="M23.068 36.062c-12.082 0 -21.674 -9.048 -22.076 -9.432a1.506 1.506 0 0 1 0 -2.172c0.402 -0.386 9.992 -9.432 22.076 -9.432s21.674 9.048 22.076 9.432a1.5 1.5 0 0 1 0.464 1.086 1.5 1.5 0 0 1 -0.464 1.086c-0.402 0.386 -9.992 9.432 -22.076 9.432"/><path style="fill:#ff00ff" d="m23.068 15.026 -0.06 0.002V36.06l0.06 0.002c12.082 0 21.674 -9.048 22.076 -9.432a1.5 1.5 0 0 0 0.464 -1.086 1.5 1.5 0 0 0 -0.464 -1.086c-0.402 -0.386 -9.992 -9.432 -22.076 -9.432"/><path style="fill:#ff00ff" d="M11.048 15.026c-4.142 0 -7.514 -3.37 -7.514 -7.514S6.904 0 11.048 0s7.514 3.37 7.514 7.514 -3.37 7.514 -7.514 7.514"/><path style="fill:#ffff00" d="M11.048 12.02c-2.486 0 -4.508 -2.022 -4.508 -4.508s2.022 -4.508 4.508 -4.508 4.508 2.022 4.508 4.508S13.534 12.02 11.048 12.02"/><path style="fill:#0000ff" d="M12.55 7.514a1.5 1.5 0 0 1 -1.502 1.502 1.5 1.5 0 0 1 -1.504 -1.502 1.502 1.502 0 0 1 3.006 0"/></svg>