<svg shape-rendering="crispEdges" width="36" height="36" viewBox="0 0 1.08 1.08" fill="none" xmlns="http://www.w3.org/2000/svg">
  <path d="M.948.225a.284.284 0 0 1-.242.431C.677.656.612.649.58.623l-.04.04C.507.696.533.696.547.722c0 0 .033.046 0 .092-.02.026-.075.063-.139 0L.395.827s.04.046.007.092C.382.945.329.972.283.926L.237.972c-.032.032-.071.013-.086 0l-.04-.04C.074.895.096.855.111.84L.455.498S.422.445.422.373A.284.284 0 0 1 .81.11" stroke="#ffff00" stroke-width=".068" stroke-linecap="round" stroke-linejoin="round"></path>
  <path d="M.805.373a.1.1 0 0 1-.099.099.1.1 0 0 1-.099-.099.1.1 0 0 1 .099-.099.1.1 0 0 1 .099.099Z" stroke="#ffff00" stroke-width=".068"></path>
</svg>
