<svg shape-rendering="crispEdges" xmlns="http://www.w3.org/2000/svg" xml:space="preserve" viewBox="0 0 36 36"><path d="M10.6 31.8h5.3V36h-5.3zm9.5 0h5.3V36h-5.3z" style="fill:red"/><path d="M28.6 32.8v-5.3a10.6 10.6 0 1 0-21.2 0v5.3z" style="fill:#ff0"/><path d="M28.6 32.8v-5.3C28.6 21.7 23.8 17 18 17v16z" style="fill:#f0f000"/><path d="M28.6 10.6A10.6 10.6 0 0 1 18 21.2 10.6 10.6 0 0 1 7.4 10.6a10.6 10.6 0 0 1 21.2 0" style="fill:red"/><path d="M18 0a10.6 10.6 0 1 1 0 21.2" style="fill:red"/><path d="M10.6 26.5h14.8v3.1H10.6z" style="fill:#0ff"/><path d="M18 26.5h7.4v3.1H18z" style="fill:#00ffcd"/><path d="M24 6.4H12a7 7 0 0 0 0 8.4h12a7 7 0 0 0 0-8.4" style="fill:#0ff"/><path d="M24 6.4h-6v8.4h6a7 7 0 0 0 0-8.4" style="fill:#000"/></svg>