<svg xmlns="http://www.w3.org/2000/svg" viewBox="0 0 36 36" xml:space="preserve" width="36" height="36"><path style="fill:red" d="M10.588 31.765h5.294V36h-5.294zm9.53 0h5.294V36h-5.294z"/><path style="fill:#ff0" d="M28.588 32.824v-5.295c0-5.848-4.74-10.588-10.588-10.588S7.412 21.682 7.412 27.529v5.294z"/><path style="fill:#f0f000" d="M28.588 32.824v-5.295c0-5.848-4.74-10.588-10.588-10.588v15.882z"/><path style="fill:red" d="M28.588 10.588A10.59 10.59 0 0 1 18 21.176 10.59 10.59 0 0 1 7.412 10.588a10.588 10.588 0 0 1 21.176 0"/><path style="fill:red" d="M18 0c5.848 0 10.588 4.74 10.588 10.588S23.848 21.176 18 21.176"/><path style="fill:#0ff" d="M10.588 26.471h14.824v3.176H10.588z"/><path style="fill:#00ffcd" d="M18 26.471h7.412v3.176H18z"/><path style="fill:#0ff" d="M24.077 6.353H11.923c-.84 1.202-1.335 2.661-1.335 4.235s.495 3.034 1.335 4.235h12.154c.84-1.202 1.335-2.661 1.335-4.235s-.495-3.034-1.335-4.235"/><path style="fill:#000" d="M24.077 6.353H18v8.471h6.077c.84-1.202 1.335-2.661 1.335-4.235s-.495-3.034-1.335-4.235"/></svg>