<svg shape-rendering="crispEdges" width="36" height="36" viewBox="0 0 23.04 23.04" id="Layer_1" version="1.1" xml:space="preserve" xmlns="http://www.w3.org/2000/svg">
  <style>
    .st1{fill:#ffff00}
  </style>

  <path d="M17.181 9.603a5.66 5.66 0 0 1-5.661 5.661 5.66 5.66 0 0 1-5.661-5.661 5.661 5.661 0 0 1 11.322 0" style="fill:#00ffff"></path>

  <path class="st1" d="M15.84 5.287a6.094 6.094 0 0 0-7.465-.918l.464.77c2.052-1.233 4.671-.913 6.367.783s2.016 4.316.783 6.367l.77.464a6.094 6.094 0 0 0-.918-7.465m-.64 8.001q-.143.14-.292.274l.585.684a7 7 0 0 0 .346-.319c.117-.117.234-.243.342-.369l-.684-.581q-.142.155-.297.31m-9.752-2.992c.158 1.386.76 2.642 1.75 3.631s2.245 1.593 3.631 1.75a6.12 6.12 0 0 0 3.87-.85l-.468-.77c-2.057 1.255-4.684.94-6.39-.765s-2.02-4.333-.765-6.39L6.3 6.426a6.15 6.15 0 0 0-.85 3.87m2.389-4.374q.154-.153.315-.292l-.581-.684a7 7 0 0 0-.688.688l.684.585c.081-.103.175-.202.27-.297m11.925 2.381.891-.139a9.16 9.16 0 0 0-2.597-5.094A9.17 9.17 0 0 0 12.941.473l-.139.891a8.28 8.28 0 0 1 4.617 2.345 8.25 8.25 0 0 1 2.345 4.594m.986.805-.9.05c.013.283.018.571 0 .855l.9.045a8 8 0 0 0 0-.95"></path>

  <path class="st1" d="m17.419 15.507-5.899 5.899-5.9-5.899a8.3 8.3 0 0 1-2.345-4.612l-.89.139a9.2 9.2 0 0 0 2.597 5.112l6.538 6.534 6.538-6.538a9.17 9.17 0 0 0 2.601-5.139l-.891-.135a8.3 8.3 0 0 1-2.349 4.639M3.186 9.157l-.9-.05q-.026.473-.004.945l.9-.045a11 11 0 0 1 .004-.85M5.62 3.703a8.27 8.27 0 0 1 4.617-2.345l-.139-.891a9.2 9.2 0 0 0-5.117 2.597 9.2 9.2 0 0 0-2.597 5.094l.891.139A8.27 8.27 0 0 1 5.62 3.703m6.327-2.429.045-.9q-.472-.027-.945 0l.045.9c.283-.018.571-.018.855 0"></path>
</svg>
