<svg xmlns="http://www.w3.org/2000/svg" width="36" height="36" viewBox="0 0 36 36" shape-rendering="crispEdges">
  <title>Powerup: Freeze - snowflake</title>
  <rect width="36" height="36" fill="none"/>
  <rect x="16" y="2" width="4" height="32" fill="#ffffff"/>
  <rect x="2" y="16" width="32" height="4" fill="#ffffff"/>
  <rect x="14" y="14" width="8" height="8" fill="#cdcdcd"/>
  <rect x="6" y="6" width="6" height="6" fill="#ffffff"/>
  <rect x="9" y="9" width="6" height="6" fill="#ffffff"/>
  <rect x="21" y="21" width="6" height="6" fill="#ffffff"/>
  <rect x="24" y="24" width="6" height="6" fill="#ffffff"/>
  <rect x="24" y="6" width="6" height="6" fill="#ffffff"/>
  <rect x="21" y="9" width="6" height="6" fill="#ffffff"/>
  <rect x="9" y="21" width="6" height="6" fill="#ffffff"/>
  <rect x="6" y="24" width="6" height="6" fill="#ffffff"/>
  <rect x="4" y="11" width="8" height="4" fill="#cdcdcd"/>
  <rect x="4" y="21" width="8" height="4" fill="#cdcdcd"/>
  <rect x="24" y="11" width="8" height="4" fill="#cdcdcd"/>
  <rect x="24" y="21" width="8" height="4" fill="#cdcdcd"/>
  <rect x="11" y="4" width="4" height="8" fill="#cdcdcd"/>
  <rect x="21" y="4" width="4" height="8" fill="#cdcdcd"/>
  <rect x="11" y="24" width="4" height="8" fill="#cdcdcd"/>
  <rect x="21" y="24" width="4" height="8" fill="#cdcdcd"/>
</svg>
