<svg shape-rendering="crispEdges" width="36" height="36" viewBox="0 0 1.08 1.08" xml:space="preserve" xmlns="http://www.w3.org/2000/svg">
  <g/>
  <path fill="#fff" d="M.945.495H.918L.931.482C.949.464.949.437.931.419S.886.401.868.419L.792.495H.648L.779.364h.108C.914.364.932.346.932.319S.914.274.887.274H.869L.882.261C.9.243.9.216.882.198S.837.18.819.198L.806.211V.189C.806.162.788.144.761.144S.716.162.716.189v.108L.585.432V.288L.661.212C.679.194.679.167.661.149S.616.131.598.149L.585.162V.135C.585.108.567.09.54.09S.495.108.495.135v.027L.482.149C.464.131.437.131.419.149s-.018.045 0 .063l.076.076v.144L.364.297V.189C.364.162.346.144.319.144S.274.162.274.189v.018L.256.194C.238.176.211.176.193.194s-.018.045 0 .063L.206.27H.188C.161.27.143.288.143.315S.161.36.188.36h.108l.135.135H.288L.211.419C.193.401.166.401.148.419S.13.464.148.482L.166.5C.148.504.134.522.134.541s.013.036.032.041L.148.6a.044.044 0 0 0 0 .063Q.16.676.18.676C.2.676.202.672.212.663L.288.585h.144L.301.716H.189C.162.716.144.734.144.761s.018.045.045.045h.018L.194.819a.044.044 0 0 0 0 .063Q.206.901.226.9C.246.899.248.896.258.887L.271.874v.018c0 .027.018.045.045.045S.361.919.361.892V.784L.492.653v.189L.416.918C.398.936.398.963.416.981s.045.018.063 0L.497.963c.004.018.022.032.041.032S.574.982.579.963l.018.018q.015.013.032.013C.646.994.651.99.661.981a.044.044 0 0 0 0-.063L.585.837V.648l.131.131v.108c0 .027.018.045.045.045S.806.914.806.887V.869l.013.013q.015.013.032.013C.868.895.873.891.883.882a.044.044 0 0 0 0-.063L.87.806h.018C.915.806.933.788.933.761S.915.716.888.716H.78L.648.585h.144l.076.076Q.883.674.9.674C.917.674.922.67.932.661a.044.044 0 0 0 0-.063L.919.585h.027C.973.585.991.567.991.54S.973.495.946.495"/>
</svg>
