<svg xmlns="http://www.w3.org/2000/svg" xml:space="preserve" shape-rendering="crispEdges" viewBox="0 0 13.2 13.2"><path fill="#fff" d="M6 6.8q0 .3-.2.4-.3 0-.3-.4v-.9h-.3v.9q0 .6.6.6t.6-.6v-.9h-.3zm1.4-.2-.1.5-.2-.5-.2-.7h-.3L7 7.4h.3L8 6h-.3z"/><path fill="#ff0" stroke="#fff" stroke-linejoin="round" stroke-width=".3" d="M6.6 0 0 6.6l6.6 6.6 6.6-6.6zm3 9-.5.6L8 8.4l-1 .4v1.7h-.7V8.8l-1-.4L4 9.6l-.5-.5 1.2-1.3-.3-1H2.6v-.7h1.8l.4-.9L3.5 4l.5-.5 1.3 1.3.9-.4V2.5H7v1.8l.9.4L9 3.4l.6.5-1.3 1.3.4 1h1.8v.7H8.8l-.3 1z"/></svg>