<svg xmlns="http://www.w3.org/2000/svg" xml:space="preserve" shape-rendering="crispEdges" viewBox="0 0 23 23"><path d="M0 11.5a11.5 11.5 0 1 0 23 0 11.5 11.5 0 0 0-23 0" style="fill:#0f0"/><path d="M23 13zL19.1 9 14 4l-.3-.2H9l-.3.3V9H4.2l-.3.3v4.4l.1.3 4.7 4.6v.5l4 3.8c5.3-.5 9.6-4.6 10.2-10" style="fill:#0c0"/><path d="M18.8 9h-4.7V4.2a.3.3 0 0 0-.4-.3H9l-.3.3V9H4.2l-.3.3v4.4a.3.3 0 0 0 .3.4h4.5v4.7a.3.3 0 0 0 .3.4h4.7a.3.3 0 0 0 .4-.4v-4.7h4.7a.3.3 0 0 0 .4-.4V9.3a.3.3 0 0 0-.4-.3m-.3 4.4h-4.8l-.3.3v4.8H9.3v-4.8l-.3-.3H4.5V9.6H9l.3-.3V4.5h4.1v4.8l.3.3h4.8z" style="fill:#fff"/></svg>