<svg xmlns="http://www.w3.org/2000/svg" xml:space="preserve" shape-rendering="crispEdges" viewBox="0 0 23 23"><path d="m14.3 12.6-.4-.1H9.1l-.3.1-.1.4 1 9.6.4.4H13a1 1 0 0 0 .5-.4l.9-9.6z" style="fill:red"/><path d="m9.3 19.2.3 3.4a1 1 0 0 0 .5.4H13a1 1 0 0 0 .5-.4l.3-3.4z" style="fill:#000"/><path d="m13.4 7.7-1.2-2.1-.4-.3-.4.1Q10 7 9.4 8q-.4 1 0 2 .3.9 1.3 1.5l1.1.5h.2c.6-.3 1.7-1 2-2.2q.3-.8-.6-2.1" style="fill:#ff0"/><path d="M14.9 10.6H8.2a1 1 0 0 0-.5.4v2q0 .3.5.4h6.7a1 1 0 0 0 .5-.4v-2a1 1 0 0 0-.5-.4" style="fill:red"/><path d="M13.4 11a1 1 0 0 0 .5-.4h-1a1 1 0 0 0 .5.4m-1.9 0a1 1 0 0 0 .5-.4h-1a1 1 0 0 0 .5.4m-1.9 0a1 1 0 0 0 .5-.4H9q0 .3.5.4" style="fill:red"/></svg>