<svg xmlns="http://www.w3.org/2000/svg" xml:space="preserve" id="Layer_1" shape-rendering="crispEdges" viewBox="0 0 23 23"><style>.st1{fill:#ff0}</style><path d="M17.2 9.6a5.7 5.7 0 0 1-5.7 5.7A5.7 5.7 0 0 1 6 9.6a5.7 5.7 0 0 1 11.3 0" style="fill:#0ff"/><path d="M15.8 5.3a6 6 0 0 0-7.4-1l.4.8c2-1.2 4.7-.9 6.4.8s2 4.3.8 6.4l.8.5a6 6 0 0 0-1-7.5m-.6 8-.3.3.6.6.3-.3q.3 0 .4-.3l-.7-.6zm-9.8-3a6 6 0 0 0 5.4 5.4 6 6 0 0 0 3.9-.9l-.5-.7a5.2 5.2 0 0 1-7.1-7.2l-.8-.5a6 6 0 0 0-.8 3.9m2.3-4.4.4-.3-.6-.7-.7.7.7.6zm12 2.4.9-.1A9 9 0 0 0 18 3 9 9 0 0 0 12.9.5l-.1.9a8 8 0 0 1 4.6 2.3 8 8 0 0 1 2.4 4.6m1 .8h-1v1h1z" class="st1"/><path d="m17.4 15.5-5.9 6-5.9-6A8 8 0 0 1 3.3 11l-1 .1A9 9 0 0 0 5 16.1l6.5 6.6 6.6-6.6a9 9 0 0 0 2.6-5.1l-1-.1a8 8 0 0 1-2.3 4.6M3.2 9.2h-1v.9h1zm2.4-5.4a8 8 0 0 1 4.6-2.3l-.1-1A9 9 0 0 0 5 3.2a9 9 0 0 0-2.6 5l.9.2a8 8 0 0 1 2.3-4.6M12 1.3v-1H11v1z" class="st1"/></svg>