<svg shape-rendering="crispEdges" height="36" width="36" xmlns="http://www.w3.org/2000/svg" viewBox="0 0 13.181 13.181" xml:space="preserve">
  <path fill="#FFFFFF" d="M6.075 6.784c0 .262-.097.385-.273.385-.172 0-.269-.13-.269-.385V5.93h-.337v.828c0 .473.22.68.595.68.388 0 .619-.218.619-.676V5.93h-.335zm1.321-.22q-.078.256-.134.524h-.007a6 6 0 0 0-.132-.531l-.181-.628h-.368l.476 1.484h.392l.5-1.484h-.357z"></path>
  <path fill="#FFFF00" stroke="#FFFFFF" stroke-width=".25" stroke-linejoin="round" d="M6.591 0 0 6.59l6.591 6.591 6.591-6.591zm3.103 9.058-.546.546-1.236-1.236a2.2 2.2 0 0 1-.936.397v1.738h-.771V8.764a2.2 2.2 0 0 1-.936-.396L4.034 9.603l-.546-.546 1.244-1.244a2.2 2.2 0 0 1-.364-.927h-1.78v-.771h1.796a2.2 2.2 0 0 1 .388-.887L3.487 3.943l.546-.546L5.326 4.69a2.2 2.2 0 0 1 .879-.357V2.498h.772v1.836a2.2 2.2 0 0 1 .879.357l1.293-1.293.546.546-1.284 1.284a2.2 2.2 0 0 1 .388.887h1.796v.772H8.816a2.2 2.2 0 0 1-.364.927z"></path>
</svg>