<svg xmlns="http://www.w3.org/2000/svg" fill="none" viewBox="0 0 1.1 1.1"><path fill="url(#a)" d="M.7.2H.4a.2.2 0 0 0-.3.2c0 .3.4.5.4.5S1 .7 1 .4A.2.2 0 0 0 .6.2"/><path fill="url(#b)" d="M.8.2Q1 .5.7.7H.2l.3.2S1 .7 1 .4z" opacity=".5"/><path fill="url(#c)" d="M.7.2H.4a.2.2 0 0 0-.3.2c0 .3.4.5.4.5S1 .7 1 .4A.2.2 0 0 0 .6.2" opacity=".5"/><path fill="url(#d)" d="M.7.2H.4a.2.2 0 0 0-.3.2c0 .3.4.5.4.5S1 .7 1 .4A.2.2 0 0 0 .6.2" opacity=".5"/><path fill="url(#e)" d="M.5.3.4.4H.2V.2z" opacity=".2"/><path fill="url(#f)" d="M.8.2v.2H.5V.2z" opacity=".2"/><path fill="url(#paint6_linear)" d="M.7.2Q1 .2.7.6.8.8.5.8l.1.1S1 .7 1 .4A.2.2 0 0 0 .7.2H.5z" opacity=".3"/><defs><radialGradient id="a" cx="0" cy="0" r="1" gradientTransform="rotate(-29.4 20.6 -13.7)scale(14.3064 11.3486)" gradientUnits="userSpaceOnUse"><stop offset=".2" stop-color="red"/><stop offset=".9" stop-color="#c20000"/></radialGradient><radialGradient id="b" cx="0" cy="0" r="1" gradientTransform="rotate(-29.4 19.1 -14.8)scale(12.3173 9.77078)" gradientUnits="userSpaceOnUse"><stop offset=".2" stop-color="red"/><stop offset="1" stop-color="#c20000"/></radialGradient><radialGradient id="c" cx="0" cy="0" r="1" gradientTransform="rotate(-29.4 20.6 -13.7)scale(14.3064 11.3486)" gradientUnits="userSpaceOnUse"><stop stop-color="#fff" stop-opacity=".3"/><stop offset="1" stop-color="#fff" stop-opacity="0"/></radialGradient><radialGradient id="d" cx="0" cy="0" r="1" gradientTransform="rotate(-26.3 35.5 -24.5)scale(10.4431 5.16038)" gradientUnits="userSpaceOnUse"><stop stop-color="#bd2719" stop-opacity=".3"/><stop offset="1" stop-color="#bd2719" stop-opacity="0"/></radialGradient><radialGradient id="e" cx="0" cy="0" r="1" gradientTransform="rotate(-21.7 22.4 -15.6)scale(3.71252 2.30616)" gradientUnits="userSpaceOnUse"><stop stop-color="#fff"/><stop offset="1" stop-color="#fff" stop-opacity="0"/></radialGradient><radialGradient id="f" cx="0" cy="0" r="1" gradientTransform="rotate(-40.8 16.5 -16.2)scale(3.07376 1.9095)" gradientUnits="userSpaceOnUse"><stop stop-color="#fff"/><stop offset="1" stop-color="#fff" stop-opacity="0"/></radialGradient></defs></svg>