<svg shape-rendering="crispEdges" width="36" height="36" viewBox="0 0 5.76 5.76" xmlns="http://www.w3.org/2000/svg" aria-hidden="true" class="iconify iconify--noto"><path d="M2.625 2.44c0-.062-.01-.095-.194-.125-.141-.022-1.907.064-2.013.071-.205.013-.285.097-.283.248.001.132.153.245.189.299s.033.105-.011.162c-.034.044-.179.104-.179.27 0 .204.133.306.285.32.238.021 1.331.04 1.611.059.135.009.218.07.354.08.062 0 .242-.15.242-.212z" fill="#00ffff"/><path d="M5.537 2.808c0-1.317-.797-1.381-.797-1.381 0-.013.042-.778-.72-.944C3.4.348 3.004.598 2.806.822c-.371-.194-.905-.135-1.15.271-.129.215-.113.544-.028.779.085.237.255.384.423.571.484.542.312.748.062 1.084-.155.207-.497.828.029 1.404.37.405 1.183.178 1.183.178.06.018.593.432 1.186.039.633-.419.386-1.205.386-1.205s.641-.318.641-1.136" fill="#ffffff"/><path d="M3.158 3.903c.036-.01.037-.06.002-.072-.158-.051-.442-.172-.61-.412-.163-.233-.262-.788.076-1.038.497-.369.417-.787.292-.942-.131-.162-.48-.131-.474.153a.4.4 0 0 0 .038.151c.058.124.147.31.022.432a.25.25 0 0 1-.228.06c-.193-.037-.339-.188-.416-.362-.222-.505-.034-.81.231-1.074.014-.014 0-.038-.019-.032a.72.72 0 0 0-.509.681c-.009.222.035.446.153.634.091.145.244.27.346.408.079.107.239.239.214.387-.024.142-.132.268-.217.377-.243.31-.369.729-.269 1.111.185.706.734.793.916.802.014.001.019-.02.006-.025a1.3 1.3 0 0 1-.338-.178c-.343-.281-.423-.769-.263-1.183a.2.2 0 0 1 .057-.079c.112-.087.196.08.385.174.219.108.465.068.605.027m1.502-2.3c.137-.134.067-.607-.134-.827-.057-.062-.16-.014-.153.069.012.14.036.345-.046.556-.047.122-.005.227.073.263.038.018.147.048.259-.062" fill="#00ffff"/><path d="M5.501 3.083q.028-.127.035-.234c.002-.034-.045-.044-.056-.011a.96.96 0 0 1-.462.579c-.09.048-.19.077-.282.122-.118.059-.279.116-.276.274.004.217.348.235.608.022.234-.192.372-.487.432-.751m-.885 1.991c.025-.02.004-.058-.027-.048a1.08 1.08 0 0 1-.863-.078c-.056-.032-.197-.135-.344-.146-.093-.007-.176.065-.17.158a.25.25 0 0 0 .088.163c.126.114.316.162.481.181.206.024.424-.009.617-.097.089-.04.162-.089.218-.134" fill="#00ffff"/><path d="M.839 1.948a.82.82 0 0 0 .409-.329c.09-.153.107-.356.015-.509S.961.878.801.958c-.118.059-.151.172-.092.306.048.109.131.128.115.27-.021.183-.247.339-.354.384-.091.038-.249.153-.052.139.139-.009.292-.056.421-.108" fill="#00ffff"/><path d="M1.324 4.543c.045.114.109.408-.155.445-.211.03-.334-.202-.382-.405-.064-.273-.3-.414-.408-.516a.035.035 0 0 1 .022-.06c.195-.015.71.001.922.536" fill="#00ffff"/><path d="M3.172.694c-.059.048-.118.114-.171.169-.019.019-.109.138-.196.063-.042-.036-.001-.125.012-.15.052-.095.213-.269.548-.34.111-.023.431-.018.431.013 0 .043-.373.04-.624.244" fill="#00ffff"/><path d="M1.56 2.711H.152c.021.05.058.096.093.135H1.56a.068.068 0 0 0 0-.136m.394.4H.298c-.045.04-.135.077-.156.188h1.811c.062 0 .112-.051.112-.113s-.05-.075-.112-.075" fill="#0000ff"/></svg>