<svg xmlns="http://www.w3.org/2000/svg" xml:space="preserve" shape-rendering="crispEdges" viewBox="0 0 23 23"><path d="M23 11.5a11.5 11.5 0 1 1-23 0 11.5 11.5 0 0 1 23 0" style="fill:red"/><path d="m23 11.6-5.7-5.8a8 8 0 0 0-5.8-2.3 8 8 0 0 0-8 8 8 8 0 0 0 2.4 5.8l5.7 5.7C18 23 23 18 23 11.6" style="fill:#c00"/><path d="M11.5 3.5a8 8 0 1 0 0 16.1 8 8 0 0 0 0-16.1m0 15.4a7.4 7.4 0 1 1 0-14.8 7.4 7.4 0 0 1 0 14.8" style="fill:#fff"/><path d="M15.6 11.2H7.5a.3.3 0 0 0-.4.3.3.3 0 0 0 .4.4h8a.3.3 0 0 0 .4-.4z" style="fill:#fff"/></svg>