<svg width="36" height="36" viewBox="0 0 1.08 1.08" fill="none" xmlns="http://www.w3.org/2000/svg"><path d="M.726.167A.23.23 0 0 0 .54.265.23.23 0 0 0 .354.167a.226.226 0 0 0-.226.226c0 .275.411.522.411.522S.95.668.95.393A.226.226 0 0 0 .724.167" fill="url(#a)"/><path opacity=".5" d="M.819.187c.123.197.01.455-.127.528C.541.796.438.758.225.637.347.798.54.914.54.914S.951.667.951.392A.23.23 0 0 0 .819.187" fill="url(#b)"/><path opacity=".5" d="M.726.167A.23.23 0 0 0 .54.265.23.23 0 0 0 .354.167a.226.226 0 0 0-.226.226c0 .275.411.522.411.522S.95.668.95.393A.226.226 0 0 0 .724.167" fill="url(#c)"/><path opacity=".5" d="M.726.167A.23.23 0 0 0 .54.265.23.23 0 0 0 .354.167a.226.226 0 0 0-.226.226c0 .275.411.522.411.522S.95.668.95.393A.226.226 0 0 0 .724.167" fill="url(#d)"/><path opacity=".24" d="M.484.259C.507.312.456.384.372.42.287.456.201.442.178.389S.205.264.29.228.461.206.484.259" fill="url(#e)"/><path opacity=".24" d="M.759.216C.791.251.771.322.715.373S.587.436.555.401.543.295.599.244.727.18.759.216" fill="url(#f)"/><path opacity=".32" d="M.73.227c.113.039.221.206.039.414C.66.766.54.829.389.804a1.4 1.4 0 0 0 .152.111S.952.668.952.393A.226.226 0 0 0 .726.167.23.23 0 0 0 .54.265S.647.199.73.227" fill="url(#paint6_linear)"/><defs><radialGradient id="a" cx="0" cy="0" r="1" gradientUnits="userSpaceOnUse" gradientTransform="rotate(-29.408 20.598 -13.707)scale(14.3064 11.3486)"><stop offset=".248" stop-color="red"/><stop offset=".864" stop-color="#c20000"/></radialGradient><radialGradient id="b" cx="0" cy="0" r="1" gradientUnits="userSpaceOnUse" gradientTransform="matrix(10.73016 -6.0481 4.7977 8.51177 9.739 7.47)"><stop offset=".248" stop-color="red"/><stop offset="1" stop-color="#c20000"/></radialGradient><radialGradient id="c" cx="0" cy="0" r="1" gradientUnits="userSpaceOnUse" gradientTransform="rotate(-29.408 20.598 -13.707)scale(14.3064 11.3486)"><stop stop-color="#fff" stop-opacity=".25"/><stop offset="1" stop-color="#fff" stop-opacity="0"/></radialGradient><radialGradient id="d" cx="0" cy="0" r="1" gradientUnits="userSpaceOnUse" gradientTransform="rotate(-26.296 35.528 -24.494)scale(10.4431 5.16038)"><stop stop-color="#bd2719" stop-opacity=".25"/><stop offset="1" stop-color="#bd2719" stop-opacity="0"/></radialGradient><radialGradient id="e" cx="0" cy="0" r="1" gradientUnits="userSpaceOnUse" gradientTransform="rotate(-21.69 22.45 -15.579)scale(3.71252 2.30616)"><stop stop-color="#fff"/><stop offset="1" stop-color="#fff" stop-opacity="0"/></radialGradient><radialGradient id="f" cx="0" cy="0" r="1" gradientUnits="userSpaceOnUse" gradientTransform="matrix(2.3281 -2.00697 1.24678 1.44628 14.6 6.846)"><stop stop-color="#fff"/><stop offset="1" stop-color="#fff" stop-opacity="0"/></radialGradient></defs></svg>