<svg shape-rendering="crispEdges" width="36" height="36" viewBox="0 0 1.62 1.62" xmlns="http://www.w3.org/2000/svg" aria-hidden="true" class="iconify iconify--twemoji"><path fill="#ffffff" d="M1.578.81c0 .149-.344.495-.768.495S.042 1.001.042.81c0-.149 1.536-.149 1.536 0"/><path fill="#000000" d="M1.578.81H.042C.042.661.386.315.81.315s.768.346.768.495"/><path fill="#ffffff" d="M1.522.81c0 .131-.319.435-.712.435S.097.978.097.81c0-.131.319-.435.712-.435.394 0 .713.304.713.435"/><path fill="#0000ff" d="M1.191.81a.38.38 0 0 1-.381.381A.38.38 0 0 1 .429.81a.381.381 0 0 1 .762 0"/><path fill="#000000" d="M1.022.81a.21.21 0 0 1-.212.212A.21.21 0 0 1 .598.81a.212.212 0 0 1 .424 0"/><path fill="#ffffff" d="M.764.675a.09.09 0 0 1-.09.09.09.09 0 0 1-.09-.09.09.09 0 0 1 .18 0"/></svg>