<svg shape-rendering="crispEdges" height="36" width="36" xmlns="http://www.w3.org/2000/svg" viewBox="0 0 23.04 23.04" xml:space="preserve"><path style="fill:#00ff00" d="M0 11.52c0 6.363 5.157 11.52 11.52 11.52s11.52-5.157 11.52-11.52S17.883 0 11.52 0 0 5.158 0 11.52"/><path style="fill:#00cc00" d="m22.947 12.958-.006-.007q-.019-.018-.039-.034c-.011-.014-3.805-3.808-3.819-3.819q-.016-.021-.034-.04c-.015-.017-5.018-5.017-5.047-5.037a.31.31 0 0 0-.255-.137H8.975a.32.32 0 0 0-.318.318v4.773H4.203a.32.32 0 0 0-.318.318v4.454c0 .107.056.197.137.255.021.029 4.632 4.635 4.635 4.639v.197c0 .107.056.197.137.255.021.029 3.79 3.799 3.819 3.819a.3.3 0 0 0 .071.071c5.341-.536 9.603-4.72 10.264-10.023"/><path style="fill:#ffffff" d="M18.837 8.975h-4.772V4.203a.32.32 0 0 0-.318-.318H8.975a.32.32 0 0 0-.318.318v4.772H4.203a.32.32 0 0 0-.318.318v4.454a.32.32 0 0 0 .318.318h4.454v4.772a.32.32 0 0 0 .318.318h4.772a.32.32 0 0 0 .318-.318v-4.772h4.772a.32.32 0 0 0 .318-.318V9.293a.32.32 0 0 0-.318-.318m-.318 4.454h-4.772a.32.32 0 0 0-.318.318v4.772H9.293v-4.772a.32.32 0 0 0-.318-.318H4.521V9.611h4.454a.32.32 0 0 0 .318-.318V4.521h4.136v4.772a.32.32 0 0 0 .318.318h4.772z"/></svg>