<svg xmlns="http://www.w3.org/2000/svg" aria-hidden="true" class="iconify iconify--noto" shape-rendering="crispEdges" viewBox="0 0 5.8 5.8"><path fill="#0ff" d="M2.6 2.4H.4q-.3 0-.3.2.1.3.2.3 0 0 0 .2-.1 0-.2.3 0 .3.3.3H2l.4.1.2-.2z"/><path fill="#fff" d="M5.5 2.8c0-1.3-.8-1.4-.8-1.4s0-.8-.7-1q-.9 0-1.2.4-.7-.3-1.1.3-.3.3 0 .8 0 .3.4.5.5.8 0 1.1c-.1.2-.5.9 0 1.4s1.2.2 1.2.2.6.4 1.2 0S5 4 5 4s.6-.3.6-1"/><path fill="#0ff" d="M3.2 3.9q-.4-.1-.7-.5c-.1-.2-.2-.8.1-1q.6-.6.3-1-.3-.1-.5.2v.1q.2.3.1.5h-.2L1.9 2q-.3-.7.2-1.1a1 1 0 0 0-.5.6l.1.7.4.4.2.4-.2.4q-.4.5-.3 1 .4 1 1 .9L2.3 5q-.5-.5-.3-1.2v-.1q.3 0 .5.2zm1.5-2.3q.1-.3-.2-.8h-.1v.9zM5.5 3v-.2l-.5.6-.3.1-.2.3q0 .3.6 0zm-.9 2a1 1 0 0 1-.9-.2l-.3-.1q-.2 0-.2.2l.1.1.5.2zM.8 2l.4-.4q.2-.2 0-.5Q1.2.8.9 1v.5q0 .4-.3.4-.3.1 0 .2zM1.3 4.5q.1.4-.1.5-.4 0-.4-.4Q.7 4.2.4 4q.4-.2 1 .4M3.2.7 3 .9q0 0-.2 0V.8q0-.2.6-.4h.4q-.1 0-.6.3"/><path fill="#00f" d="M1.6 2.7H.2v.1h1.4M2 3H.3l-.2.2H2z"/></svg>