<svg shape-rendering="crispEdges" height="36" width="36" xmlns="http://www.w3.org/2000/svg" viewBox="0 0 23.039 23.039" xml:space="preserve">
  <path style="fill:#ff0000" d="M14.256 12.639a.48.48 0 0 0-.355-.157H9.138a.48.48 0 0 0-.356.158.48.48 0 0 0-.122.37l.96 9.597a.48.48 0 0 0 .477.432h2.879a.48.48 0 0 0 .477-.434l.925-9.597a.48.48 0 0 0-.122-.369"/>
  <path style="fill:#000000" d="m9.279 19.201.341 3.407a.48.48 0 0 0 .477.432h2.879a.48.48 0 0 0 .477-.434l.328-3.404z"/>
  <path style="fill:#ffff00" d="M16.022 7.091c-.176-.82-.635-1.628-1.363-2.404-.74-.787-1.157-1.706-1.242-2.731-.064-.778.097-1.332.098-1.336a.48.48 0 0 0-.117-.477.48.48 0 0 0-.475-.124c-1.581.451-2.785 1.188-3.577 2.187-.544.686-.899 1.502-1.06 2.433l-.005-.006a.48.48 0 0 0-.814.11c-.403.927-.578 1.835-.521 2.7.052.789.294 1.524.719 2.187a5.14 5.14 0 0 0 1.862 1.715c.717.393 1.524.618 2.267.633l.11.001c.684 0 1.485-.27 2.2-.741.769-.508 1.374-1.207 1.703-1.967a3.53 3.53 0 0 0 .216-2.178"/>
  <path style="fill:#ffff00" d="M13.413 7.665a7.8 7.8 0 0 1-1.256-2.069.48.48 0 0 0-.339-.303.48.48 0 0 0-.439.115c-.97.901-1.62 1.765-1.936 2.566-.285.726-.306 1.413-.06 2.038.229.583.695 1.103 1.347 1.506.351.217.878.458 1.074.458h.001a.5.5 0 0 0 .167-.03c.618-.23 1.708-1.011 2.002-2.129.136-.517.149-1.311-.562-2.153"/>
  <path style="fill:#ff0000" d="M14.896 10.563H8.178a.48.48 0 0 0-.48.48v1.919c0 .265.215.48.48.48h6.718a.48.48 0 0 0 .48-.48v-1.919a.48.48 0 0 0-.48-.48"/>
  <path style="fill:#ff0000" d="M13.438 11.043a.48.48 0 0 0 .48-.48h-.96a.48.48 0 0 0 .48.48m-1.919 0a.48.48 0 0 0 .48-.48h-.96a.48.48 0 0 0 .48.48m-1.918 0a.48.48 0 0 0 .48-.48h-.96c0 .265.215.48.48.48"/>
</svg>
